<?xml version="1.0" encoding="iso-8859-1"?>
<!-- Generator: Adobe Illustrator 19.0.0, SVG Export Plug-In . SVG Version: 6.00 Build 0)  -->
<svg xmlns="http://www.w3.org/2000/svg" xmlns:xlink="http://www.w3.org/1999/xlink" version="1.1" id="Layer_1" x="0px" y="0px" viewBox="0 0 511.999 511.999" style="enable-background:new 0 0 511.999 511.999;" xml:space="preserve">
<path style="fill:#FE9901;" d="M261.503,8.135c-72.05-3.09-131.744,55.552-131.744,127.668v185.894c0,0.06,0.048,0.108,0.108,14.463  h252.267c0.06-14.355,0.108-14.404,0.108-14.463V134.26C382.242,66.381,328.672,11.016,261.503,8.135z"/>
<path style="fill:#F28F0C;" d="M261.503,8.135c-5.34-0.229-10.611-0.111-15.796,0.319l0,0  c60.93,10.888,107.182,64.136,107.182,128.196v199.511h29.246c0.002-14.355,0.003-14.356,0.005-14.357  c0.003,0,0.005-0.003,0.01-0.004V136.651c0-4.408-0.121-8.681-0.341-12.842C376.642,60.783,325.189,10.867,261.503,8.135z"/>
<path style="fill:#F9A93E;" d="M178.143,322.634l31.676-18.905l2.074-36.762c-25.069-14.756-45.73-44.807-47.924-72.343v96.781  C163.969,303.859,169.459,315.024,178.143,322.634z"/>
<path style="fill:#FED9A8;" d="M300.072,266.399c-6.153,3.78-12.594,6.637-19.11,8.255l-0.98,0.244  c-21.461,5.329-27.734,5.292-49.178-0.107c-6.439-1.621-12.806-4.453-18.891-8.194l-2.094,37.133l-34.918,20.84l81.098,154.792  L337.1,324.569l-34.918-20.84L300.072,266.399z"/>
<path style="fill:#F2C18B;" d="M211.844,267.834c37.15,32.746,70.171,27.758,70.171,27.758c6.545-1.625,13.02-4.386,19.254-7.998  l-1.178-20.834c-5.928,3.488-12.102,6.131-18.339,7.68l-0.068,0.017c-0.242,0.063-0.482,0.137-0.724,0.197l-0.98,0.243  c-21.461,5.329-27.734,5.292-49.178-0.107c-0.13-0.033-0.26-0.074-0.39-0.107c-0.138-0.034-0.269-0.067-0.409-0.102  c-6.159-1.55-12.253-4.177-18.111-7.627L211.844,267.834z"/>
<path style="fill:#F2F2F2;" d="M485.608,401.768c-1.777-32.184-23.161-59.272-53.395-67.385l-94.426-23.797  c-8.319-2.097-16.976,1.88-20.806,9.556l-60.98,122.206l-60.98-122.206c-3.831-7.676-12.487-11.652-20.806-9.556l-94.426,23.797  c-30.234,8.114-51.618,35.201-53.395,67.385l-5.011,90.873c-0.34,6.159,4.563,11.339,10.732,11.339h222.834h1.052h1.052h222.834  c6.169,0,11.071-5.181,10.732-11.339L485.608,401.768z"/>
<path style="fill:#FED9A8;" d="M348.251,145.188v-42.252c0-1.743-2.289-2.424-3.215-0.947  c-20.08,32.012-66.671,48.887-120.949,48.887c-21.75,0-60.336-5.688-60.336-5.688c-9.994,0.584-17.925,8.85-17.925,18.991v11.116  c0,10.204,8.03,18.51,18.113,19.001c2.533,34.052,33.444,72.072,66.067,80.285c22.124,5.57,28.596,5.608,50.738,0.11l1.011-0.251  c32.676-8.113,63.65-46.054,66.294-80.143c10.09-0.482,18.129-8.791,18.129-19.002v-11.116  C366.176,154.039,358.245,145.773,348.251,145.188z"/>
<path style="fill:#FFC07B;" d="M348.251,143.595v-40.599c0-1.783-2.32-2.43-3.27-0.921c-6.087,9.667-14.599,17.949-25.006,24.802  c-0.495,0.326-0.797,0.876-0.797,1.468v16.843l-0.203,49.028c0,0.053-0.002,0.106-0.006,0.159  c-2.686,34.069-33.637,71.958-66.287,80.064l-1.011,0.251c-0.529,0.132-1.049,0.26-1.56,0.385c-1.931,0.471-1.725,3.299,0.256,3.477  c9.058,0.809,16.75-0.478,30.376-3.861l1.011-0.251c32.21-7.997,62.766-44.977,66.163-78.682c0.082-0.819,0.703-1.48,1.521-1.578  c9.428-1.141,16.738-9.149,16.738-18.884v-11.116c0-9.63-7.151-17.568-16.429-18.845  C348.885,145.216,348.251,144.466,348.251,143.595z"/>
<path style="fill:#F7C68B;" d="M166.342,182.587h4.824v-25.982h-4.824c-4.251,0-7.697,3.446-7.697,7.697v10.59  C158.645,179.141,162.091,182.587,166.342,182.587z"/>
<path style="fill:#F2AD5A;" d="M346.528,182.587h-4.824v-25.982h4.824c4.251,0,7.697,3.446,7.697,7.697v10.59  C354.224,179.141,350.779,182.587,346.528,182.587z"/>
<path style="fill:#FFC07B;" d="M224.121,150.829c-20.913,0-57.371-5.255-60.149-5.66v6.546c0,0,39.236,14.721,60.149,14.721  c57.418,0,106.232-18.884,124.164-54.593v-8.86c0-1.77-2.322-2.46-3.265-0.962C324.912,133.981,278.353,150.829,224.121,150.829z"/>
<path style="fill:#FFF4E9;" d="M253.139,251.691c17.268,0,31.266-11.656,31.266-26.034h-62.53  C221.873,240.034,235.871,251.691,253.139,251.691z"/>
<g>
	<path style="fill:#E6E6E6;" d="M78.437,374.533c-6.737-9.448-15.378-18.501-26.373-25.514   c-14.944,12.807-24.508,31.686-25.671,52.75l-1.232,22.335l-1.301,23.604l-0.59,10.697l-1.888,34.238   c-0.34,6.159,4.563,11.339,10.732,11.339H95.5l3.702-54.338C101.02,422.974,93.957,396.298,78.437,374.533z"/>
	<path style="fill:#E6E6E6;" d="M433.564,374.533c6.737-9.448,15.378-18.501,26.373-25.514   c14.944,12.807,24.508,31.686,25.671,52.75l5.011,90.873c0.34,6.159-4.563,11.339-10.732,11.339h-63.385l-3.702-54.338   C410.981,422.974,418.044,396.298,433.564,374.533z"/>
</g>
<rect x="243.175" y="429.802" style="fill:#EAEAEA;" width="25.659" height="74.187"/>
<polygon style="fill:#F2F2F2;" points="294.525,365.145 217.477,365.145 256.001,442.348 "/>
<g>
	<path style="fill:#E6E6E6;" d="M140.557,319.069l-2.266,26.164c-0.216,2.495,1.186,4.85,3.482,5.849l29.651,12.902l12.846,42.309   c0.478,1.574,1.598,2.873,3.086,3.576L256,442.348l-60.98-122.206c-3.831-7.676-12.487-11.652-20.806-9.556L140.557,319.069z"/>
	<path style="fill:#E6E6E6;" d="M371.444,319.069l2.265,26.164c0.216,2.495-1.186,4.85-3.482,5.849l-29.651,12.902l-12.846,42.309   c-0.478,1.574-1.598,2.873-3.085,3.576l-68.644,32.479l60.98-122.206c3.831-7.676,12.487-11.652,20.806-9.556L371.444,319.069z"/>
	<path style="fill:#E6E6E6;" d="M484.068,390.092c0.033,0.16,0.06,0.323,0.093,0.483   C484.128,390.416,484.102,390.253,484.068,390.092z"/>
	<path style="fill:#E6E6E6;" d="M471.982,362.28c0.168,0.237,0.336,0.475,0.501,0.714   C472.318,362.756,472.149,362.518,471.982,362.28z"/>
	<path style="fill:#E6E6E6;" d="M479.294,375.233c0.092,0.208,0.188,0.414,0.278,0.623   C479.483,375.647,479.386,375.442,479.294,375.233z"/>
	<path style="fill:#E6E6E6;" d="M481.989,382.318c0.108,0.333,0.212,0.667,0.315,1.002   C482.202,382.985,482.097,382.65,481.989,382.318z"/>
	<path style="fill:#E6E6E6;" d="M474.182,365.575c0.055,0.087,0.112,0.171,0.167,0.258   C474.295,365.746,474.237,365.662,474.182,365.575z"/>
	<path style="fill:#E6E6E6;" d="M480.857,379.053c0.079,0.212,0.152,0.428,0.229,0.64   C481.007,379.481,480.936,379.266,480.857,379.053z"/>
	<path style="fill:#E6E6E6;" d="M476.101,368.806c0.122,0.217,0.236,0.437,0.355,0.656   C476.338,369.244,476.222,369.023,476.101,368.806z"/>
	<path style="fill:#E6E6E6;" d="M483.03,385.826c0.079,0.294,0.164,0.585,0.241,0.88C483.194,386.411,483.109,386.12,483.03,385.826   z"/>
	<path style="fill:#E6E6E6;" d="M469.923,359.498c0.158,0.203,0.311,0.409,0.467,0.615   C470.235,359.907,470.081,359.701,469.923,359.498z"/>
	<path style="fill:#E6E6E6;" d="M464.938,353.754c0.179,0.185,0.358,0.368,0.535,0.555   C465.297,354.122,465.117,353.938,464.938,353.754z"/>
	<path style="fill:#E6E6E6;" d="M462.441,351.278c0.194,0.182,0.384,0.368,0.575,0.552   C462.825,351.646,462.634,351.461,462.441,351.278z"/>
	<path style="fill:#E6E6E6;" d="M484.703,393.539c0.059,0.359,0.111,0.72,0.165,1.081   C484.815,394.259,484.761,393.897,484.703,393.539z"/>
	<path style="fill:#E6E6E6;" d="M477.705,371.849c0.145,0.29,0.29,0.581,0.431,0.873   C477.995,372.429,477.85,372.138,477.705,371.849z"/>
	<path style="fill:#E6E6E6;" d="M485.203,397.167c0.041,0.351,0.083,0.7,0.12,1.052   C485.286,397.867,485.243,397.517,485.203,397.167z"/>
</g>
<g>
	<path style="fill:#F2F2F2;" d="M474.349,365.833c0.607,0.975,1.189,1.968,1.752,2.973   C475.539,367.801,474.956,366.809,474.349,365.833z"/>
	<path style="fill:#F2F2F2;" d="M470.39,360.113c0.543,0.712,1.073,1.435,1.591,2.168   C471.463,361.548,470.933,360.825,470.39,360.113z"/>
	<path style="fill:#F2F2F2;" d="M463.016,351.831c0.653,0.629,1.294,1.27,1.922,1.923   C464.31,353.101,463.668,352.46,463.016,351.831z"/>
	<path style="fill:#F2F2F2;" d="M472.482,362.995c0.584,0.848,1.151,1.706,1.7,2.58   C473.635,364.701,473.066,363.843,472.482,362.995z"/>
	<path style="fill:#F2F2F2;" d="M465.473,354.308c1.562,1.657,3.047,3.388,4.45,5.19   C468.52,357.698,467.035,355.967,465.473,354.308z"/>
	<path style="fill:#F2F2F2;" d="M478.136,372.722c0.401,0.829,0.787,1.666,1.158,2.511   C478.923,374.388,478.537,373.551,478.136,372.722z"/>
	<path style="fill:#F2F2F2;" d="M484.868,394.619c0.125,0.845,0.236,1.694,0.335,2.548   C485.104,396.314,484.993,395.465,484.868,394.619z"/>
	<path style="fill:#F2F2F2;" d="M485.608,401.768c-0.066-1.191-0.167-2.372-0.285-3.549   C485.441,399.395,485.542,400.577,485.608,401.768l5.636,102.213l0,0L485.608,401.768z"/>
	<path style="fill:#F2F2F2;" d="M484.16,390.577c0.2,0.98,0.38,1.968,0.542,2.963C484.541,392.545,484.36,391.557,484.16,390.577z"/>
	<path style="fill:#F2F2F2;" d="M476.456,369.462c0.43,0.787,0.847,1.582,1.249,2.386   C477.303,371.045,476.886,370.249,476.456,369.462z"/>
</g>
<path style="fill:#E6E6E6;" d="M459.937,349.018c0.854,0.732,1.686,1.489,2.504,2.26c-8.378-7.892-18.65-13.789-30.228-16.896  l-94.426-23.797c-5.537-1.395-11.216-0.089-15.53,3.197l81.739,20.6c16.467,4.419,30.297,14.475,39.776,27.909  C448.497,357.431,453.844,352.906,459.937,349.018z"/>
<g>
	<path style="fill:#F2F2F2;" d="M479.573,375.857c0.451,1.053,0.88,2.119,1.284,3.197   C480.453,377.976,480.024,376.91,479.573,375.857z"/>
	<path style="fill:#F2F2F2;" d="M483.27,386.706c0.29,1.119,0.558,2.247,0.798,3.386   C483.828,388.954,483.559,387.826,483.27,386.706z"/>
	<path style="fill:#F2F2F2;" d="M481.086,379.695c0.316,0.867,0.618,1.742,0.903,2.624   C481.703,381.435,481.402,380.562,481.086,379.695z"/>
	<path style="fill:#F2F2F2;" d="M482.304,383.319c0.256,0.83,0.497,1.666,0.725,2.507   C482.801,384.985,482.561,384.149,482.304,383.319z"/>
</g>
<path style="fill:#CCCCCC;" d="M485.322,398.219c-0.036-0.36-0.081-0.72-0.122-1.079c-0.096-0.842-0.206-1.683-0.331-2.521  c-0.053-0.36-0.106-0.722-0.165-1.081c-0.163-0.994-0.342-1.982-0.542-2.963c-0.033-0.16-0.059-0.323-0.093-0.483  c-0.239-1.139-0.509-2.267-0.798-3.386c-0.094-0.362-0.2-0.721-0.294-1.083c-0.202-0.777-0.437-1.545-0.674-2.313  c-0.103-0.333-0.206-0.664-0.313-0.993c-0.285-0.882-0.587-1.757-0.903-2.624c-0.078-0.213-0.15-0.429-0.229-0.64  c-0.404-1.078-0.833-2.144-1.284-3.197c-0.09-0.21-0.187-0.415-0.278-0.623c-0.371-0.846-0.757-1.683-1.158-2.511  c-0.141-0.292-0.285-0.583-0.431-0.873c-0.402-0.804-0.819-1.599-1.249-2.386c-0.119-0.218-0.234-0.439-0.355-0.656  c-0.562-1.005-1.145-1.998-1.752-2.973c-0.055-0.087-0.112-0.171-0.167-0.258c-0.548-0.873-1.116-1.732-1.7-2.58  c-0.165-0.239-0.334-0.477-0.501-0.714c-0.542-0.769-1.103-1.522-1.67-2.273c-0.128-0.17-0.257-0.341-0.388-0.51  c-1.403-1.8-2.888-3.531-4.45-5.19c-0.155-0.165-0.313-0.326-0.47-0.489c-0.65-0.674-1.31-1.337-1.983-1.986  c-0.192-0.185-0.384-0.372-0.578-0.555c-0.819-0.771-1.65-1.528-2.504-2.26c-6.093,3.886-11.44,8.413-16.164,13.272  c7.924,11.231,12.809,24.822,13.619,39.477l5.636,102.213h16.859c6.169,0,11.071-5.181,10.732-11.339l-5.011-90.873  C485.542,400.577,485.441,399.395,485.322,398.219z"/>
<g>
	<path style="fill:#232323;" d="M205.378,166.436c-4.645,0-8.412,3.767-8.412,8.412v6.741c0,4.645,3.767,8.412,8.412,8.412   s8.412-3.767,8.412-8.412v-6.741C213.79,170.202,210.023,166.436,205.378,166.436z"/>
	<path style="fill:#232323;" d="M300.9,190.001c4.645,0,8.412-3.767,8.412-8.412v-6.741c0-4.645-3.767-8.412-8.412-8.412   s-8.412,3.767-8.412,8.412v6.741C292.488,186.234,296.255,190.001,300.9,190.001z"/>
	<path style="fill:#232323;" d="M253.139,259.708c21.661,0,39.283-15.276,39.283-34.053c0-4.428-3.589-8.018-8.018-8.018h-62.53   c-4.428,0-8.018,3.59-8.018,8.018C213.855,244.433,231.477,259.708,253.139,259.708z M273.954,233.675   c-3.813,5.921-11.711,9.997-20.815,9.997c-9.104,0-17.001-4.077-20.815-9.997H273.954z"/>
	<path style="fill:#232323;" d="M498.625,492.201l-5.012-90.874c0-0.002,0-0.004,0-0.006c-0.073-1.313-0.184-2.615-0.315-3.912   c-0.031-0.305-0.069-0.607-0.104-0.912c-0.122-1.088-0.264-2.17-0.427-3.245c-0.031-0.205-0.062-0.412-0.094-0.616   c-2.225-14.04-7.874-26.936-16.142-37.676c-0.003-0.004-0.006-0.009-0.011-0.014c-1.629-2.116-3.356-4.152-5.183-6.093   c-0.208-0.222-0.424-0.438-0.636-0.659c-0.643-0.667-1.295-1.324-1.96-1.967c-0.314-0.305-0.63-0.609-0.949-0.909   c-0.668-0.626-1.349-1.24-2.04-1.843c-0.203-0.177-0.395-0.367-0.6-0.542c-0.022-0.019-0.047-0.032-0.07-0.05   c-8.771-7.503-19.202-13.131-30.792-16.241c-0.04-0.011-0.079-0.021-0.119-0.031l-43.912-11.067v-53.928   c0-4.428-3.589-8.019-8.018-8.019c-4.429,0-8.018,3.59-8.018,8.019v49.887l-0.817-0.206c-0.001,0-0.002,0-0.002,0l-33.656-8.481   c-0.67-0.169-1.349-0.302-2.029-0.417c-0.153-0.026-0.306-0.048-0.459-0.072c-0.65-0.098-1.301-0.176-1.955-0.227   c-0.013-0.001-0.026-0.002-0.039-0.003c-0.647-0.048-1.296-0.08-1.945-0.08c-4.597,0-8.975,1.185-12.806,3.32l-10.566-6.306   l-1.586-28.04c23.457-15.607,42.543-43.059,46.933-69.898c11.012-3.463,18.9-13.726,18.9-25.793v-11.115   c0-11.661-7.437-21.696-17.926-25.458v-35.79c0-5.389-4.393-9.775-9.793-9.775c-3.362,0-6.438,1.707-8.232,4.566   c-17.726,28.258-60.402,45.129-114.157,45.129c-20.906,0-58.787-5.547-59.168-5.602c-0.541-0.08-1.093-0.104-1.637-0.072   c-14.286,0.835-25.476,12.694-25.476,26.996v11.115c0,12.051,7.872,22.307,18.865,25.781c4.321,26.906,23.434,54.474,46.952,70.119   l-1.569,27.831l-10.566,6.306c-3.832-2.135-8.209-3.32-12.807-3.32c-0.649,0-1.297,0.032-1.944,0.08   c-0.012,0.001-0.024,0.002-0.036,0.003c-0.655,0.05-1.309,0.128-1.959,0.227c-0.153,0.022-0.305,0.046-0.458,0.072   c-0.678,0.115-1.354,0.247-2.022,0.416c-0.003,0-0.005,0.001-0.009,0.001l-14.617,3.684l-19.038,4.798   c-0.001,0-0.001,0-0.002,0.001l-0.819,0.206V135.803c0-32.663,13.526-64.354,37.107-86.947c23.458-22.473,54.1-34.092,86.274-32.71   c63.401,2.719,113.064,54.601,113.064,118.112v93.274c0,4.428,3.589,8.018,8.018,8.018c4.429,0,8.018-3.59,8.018-8.018v-93.274   c0-34.843-13.288-67.867-37.416-92.99c-24.057-25.048-56.374-39.661-90.997-41.144c-36.572-1.56-71.411,11.625-98.055,37.152   c-26.724,25.603-42.051,61.515-42.051,98.528v179.737l-43.912,11.067c-0.04,0.01-0.079,0.02-0.119,0.031   c-11.586,3.109-22.013,8.733-30.782,16.233c-0.026,0.021-0.056,0.036-0.08,0.059c-0.236,0.202-0.458,0.42-0.692,0.625   c-0.648,0.569-1.288,1.144-1.917,1.733c-0.342,0.321-0.679,0.646-1.015,0.972c-0.635,0.617-1.259,1.244-1.874,1.882   c-0.235,0.245-0.475,0.484-0.707,0.731c-1.812,1.927-3.525,3.947-5.144,6.047c-0.018,0.024-0.036,0.047-0.055,0.071   c-8.254,10.734-13.894,23.618-16.118,37.642c-0.033,0.207-0.063,0.414-0.095,0.621c-0.163,1.074-0.304,2.155-0.426,3.242   c-0.034,0.304-0.073,0.607-0.104,0.912c-0.132,1.299-0.243,2.604-0.315,3.919l-1.052,19.086v0.001l-0.201,3.645   c-0.244,4.422,3.143,8.205,7.565,8.448c4.439,0.241,8.205-3.143,8.448-7.565l1.253-22.731c0.053-0.972,0.13-1.939,0.225-2.904   c0.021-0.216,0.05-0.431,0.074-0.647c0.083-0.772,0.173-1.542,0.282-2.307c0.026-0.184,0.057-0.367,0.083-0.55   c0.124-0.827,0.26-1.653,0.414-2.473c0.018-0.098,0.037-0.197,0.057-0.296c2.064-10.729,6.653-20.76,13.301-29.139   c0.199-0.249,0.404-0.492,0.606-0.739c0.351-0.429,0.703-0.854,1.065-1.274c0.323-0.374,0.653-0.742,0.985-1.109   c0.245-0.272,0.492-0.541,0.741-0.808c0.203-0.216,0.411-0.428,0.616-0.641c7.049,5.325,13.442,11.985,19.06,19.863   c14.161,19.86,21.012,44.688,19.292,69.912l-3.193,46.863H32.112c-1.023,0-1.681-0.535-1.982-0.853s-0.799-1.005-0.742-2.026   l1.683-30.509c0-0.002,0-0.003,0-0.005l0.223-4.062c0.244-4.422-3.143-8.205-7.565-8.448c-4.436-0.247-8.205,3.143-8.448,7.565   L13.374,492.2c-0.035,0.64-0.037,1.281-0.006,1.917c0.215,4.456,2.026,8.753,5.114,12.015l0,0l0,0   c3.528,3.728,8.496,5.867,13.63,5.867h447.773c5.134,0,10.101-2.138,13.63-5.866C497.047,502.405,498.908,497.326,498.625,492.201z    M324.156,323.723c0.187-0.375,0.405-0.728,0.631-1.072c0.068-0.104,0.137-0.208,0.208-0.309c0.203-0.285,0.42-0.557,0.649-0.818   c0.152-0.171,0.312-0.333,0.475-0.492c0.076-0.075,0.153-0.148,0.231-0.22c1.425-1.317,3.201-2.211,5.101-2.572   c0.021-0.004,0.042-0.01,0.063-0.013c0.235-0.043,0.473-0.074,0.711-0.1c0.294-0.031,0.59-0.056,0.89-0.062   c0.182-0.004,0.365,0.001,0.546,0.006c0.233,0.007,0.467,0.019,0.699,0.044c0.129,0.013,0.258,0.027,0.387,0.045   c0.363,0.051,0.726,0.113,1.083,0.203l28.119,7.086l1.638,18.909l-28.21,12.274c-2.155,0.938-3.791,2.774-4.474,5.024   l-12.563,41.382l-46.812,22.149l13.505-27.064l14.669-29.396v-0.001L324.156,323.723z M256.001,424.39l-25.562-51.226h51.123   L256.001,424.39z M171.934,193.701c-0.3-4.037-3.563-7.218-7.607-7.414c-5.879-0.287-10.485-5.115-10.485-10.992V164.18   c0-5.584,4.194-10.252,9.671-10.922c6.193,0.891,40.128,5.638,60.573,5.638c28.213,0,54.572-4.494,76.228-12.994   c16.094-6.316,29.616-14.88,39.917-25.19v24.477c0,4.247,3.311,7.757,7.551,8.005c5.817,0.34,10.375,5.166,10.375,10.986v11.115   c0,5.882-4.61,10.712-10.494,10.992c-4.036,0.194-7.299,3.36-7.611,7.39c-1.895,24.423-20.156,51.213-42.077,64.994   c-0.73,0.198-1.44,0.49-2.102,0.897c-4.9,3.011-9.806,5.254-14.618,6.692c-0.406,0.113-0.813,0.236-1.22,0.339   c-0.089,0.024-0.176,0.049-0.265,0.072l-0.961,0.238c-9.842,2.444-16.811,3.858-23.297,3.858h-0.001   c-6.474,0-13.16-1.357-23.133-3.858c-5.338-1.391-10.808-3.788-16.265-7.144c-0.669-0.412-1.388-0.705-2.126-0.903   C192.025,245.048,173.753,218.158,171.934,193.701z M213.929,310.615c2.287-1.364,3.746-3.775,3.897-6.434l1.394-24.715   c2.38,0.952,4.78,1.761,7.19,2.434c0.081,0.023,0.161,0.044,0.243,0.067c0.465,0.128,0.929,0.272,1.395,0.388   c0.123,0.031,0.241,0.06,0.362,0.091c0.145,0.037,0.291,0.082,0.436,0.119c10.865,2.736,18.713,4.319,26.679,4.319   c7.904,0,15.661-1.542,26.388-4.205l0.981-0.244c0.912-0.227,1.824-0.479,2.738-0.749c2.392-0.672,4.774-1.475,7.135-2.421   l1.408,24.916c0.151,2.658,1.61,5.069,3.897,6.433l11.327,6.76l-19.836,39.751h-67.128l-19.837-39.751L213.929,310.615z    M148.053,325.448l28.12-7.086c0.357-0.09,0.721-0.152,1.084-0.203c0.128-0.018,0.257-0.032,0.386-0.045   c0.234-0.024,0.468-0.036,0.702-0.044c0.172-0.005,0.344-0.012,0.515-0.009c0.312,0.005,0.619,0.032,0.925,0.064   c0.233,0.027,0.464,0.057,0.694,0.098c0.042,0.007,0.081,0.018,0.123,0.026c1.875,0.367,3.625,1.25,5.036,2.549   c0.087,0.081,0.174,0.163,0.259,0.246c0.156,0.154,0.311,0.31,0.458,0.475c0.231,0.263,0.45,0.537,0.654,0.825   c0.071,0.098,0.137,0.201,0.205,0.303c0.227,0.345,0.445,0.698,0.633,1.074l22.455,45c0,0.001,0.001,0.002,0.001,0.003   l28.174,56.46l-46.813-22.149l-12.563-41.382c-0.683-2.249-2.318-4.085-4.474-5.024l-28.209-12.274L148.053,325.448z    M260.84,495.963c2.251-1.545,3.728-4.133,3.728-7.068c0-4.733-3.837-8.57-8.57-8.57s-8.57,3.837-8.57,8.57   c0,2.935,1.478,5.524,3.728,7.068H104.083l3.12-45.774c1.971-28.916-5.925-57.438-22.235-80.312   c-5.728-8.035-12.202-14.99-19.299-20.828c4.956-3.005,10.368-5.35,16.141-6.906l49.788-12.547l-1.294,14.945   c-0.513,5.933,2.81,11.516,8.272,13.894l26.255,11.424l11.769,38.765c1.133,3.731,3.805,6.827,7.329,8.494l68.644,32.478   c0.033,0.016,0.068,0.026,0.102,0.042c0.049,0.022,0.098,0.045,0.148,0.067c0.127,0.056,0.257,0.103,0.386,0.151   c0.108,0.04,0.215,0.08,0.323,0.115c0.07,0.022,0.138,0.046,0.207,0.067c0.066,0.019,0.135,0.033,0.201,0.05   c0.026,0.006,0.051,0.013,0.076,0.019c0.107,0.028,0.213,0.059,0.32,0.081c-3.938,0.774-6.909,4.241-6.909,8.406   c0,4.733,3.837,8.57,8.57,8.57c4.733,0,8.57-3.837,8.57-8.57c0-4.163-2.969-7.629-6.904-8.406c0.109-0.023,0.217-0.055,0.326-0.082   c0.025-0.006,0.049-0.012,0.074-0.018c0.067-0.018,0.135-0.031,0.201-0.05c0.069-0.02,0.137-0.044,0.205-0.066   c0.11-0.035,0.219-0.077,0.328-0.118c0.128-0.048,0.257-0.095,0.383-0.149c0.049-0.021,0.097-0.044,0.146-0.066   c0.034-0.016,0.07-0.027,0.105-0.043l68.645-32.479c3.526-1.669,6.198-4.766,7.328-8.495l11.769-38.764l26.256-11.424   c5.461-2.377,8.785-7.961,8.271-13.893l-1.294-14.945l49.789,12.547c5.772,1.556,11.184,3.901,16.141,6.906   c-7.097,5.839-13.57,12.794-19.299,20.829c-16.309,22.873-24.206,51.394-22.236,80.311l3.12,45.774H260.84V495.963z    M481.869,495.11c-0.302,0.319-0.96,0.853-1.982,0.853h-55.894l-3.193-46.863c-1.717-25.224,5.134-50.053,19.294-69.912   c5.618-7.88,12.012-14.539,19.06-19.863c0.194,0.201,0.389,0.401,0.581,0.605c0.278,0.296,0.552,0.596,0.823,0.897   c0.308,0.341,0.614,0.682,0.914,1.03c0.396,0.458,0.783,0.924,1.164,1.392c0.171,0.208,0.345,0.414,0.513,0.624   c6.662,8.388,11.26,18.437,13.324,29.183c0.016,0.086,0.033,0.17,0.049,0.256c0.157,0.835,0.295,1.675,0.421,2.518   c0.025,0.17,0.053,0.34,0.078,0.51c0.111,0.779,0.203,1.562,0.287,2.347c0.022,0.205,0.049,0.408,0.069,0.615   c0.095,0.965,0.172,1.935,0.226,2.908l5.012,90.873C482.668,494.104,482.172,494.791,481.869,495.11z"/>
</g>
<g>
</g>
<g>
</g>
<g>
</g>
<g>
</g>
<g>
</g>
<g>
</g>
<g>
</g>
<g>
</g>
<g>
</g>
<g>
</g>
<g>
</g>
<g>
</g>
<g>
</g>
<g>
</g>
<g>
</g>
</svg>
