<svg xmlns="http://www.w3.org/2000/svg" version="1.1" xmlns:xlink="http://www.w3.org/1999/xlink" xmlns:svgjs="http://svgjs.dev/svgjs" viewBox="0 0 800 800" opacity="1"><g stroke-width="2" stroke="hsl(0, 0%, 100%)" fill="none" stroke-linecap="round"><path d="M-217.5 457.63333155314126C-80.27777777777771 426.07222044203013 -80.27777777777783 366.3805537753635 194.16666666666674 362.9499982198079C468.6111111111112 359.5194426642524 331.3888888888888 454.2027759975857 605.8333333333334 447.34166488647463C880.2777777777778 440.48055377536355 880.2777777777778 377.3583315531413 1017.5 342.3666648864746 " transform="rotate(47.5, 400, 400)"></path><path d="M-201.25 456.11666844685874C-67.63888888888886 425.3861128913031 -67.63888888888891 367.26527955796985 199.58333333333326 363.9250017801921C466.80555555555566 360.5847240024143 333.19444444444434 452.77639066908097 600.4166666666666 446.09583511352537C867.6388888888889 439.4152795579698 867.6388888888889 377.9541684468587 1001.25 343.8833351135254 " transform="rotate(46.25, 400, 400)"></path><path d="M-185 454.6000015258789C-54.99999999999994 424.7000015258789 -55.000000000000114 368.1500015258789 205 364.9000015258789C465.0000000000001 361.6500015258789 334.9999999999999 451.35000152587895 595 444.8500015258789C855 438.35000152587895 855 378.5500015258789 985 345.4000015258789 " transform="rotate(45, 400, 400)"></path><path d="M-168.75 453.0833346048991C-42.361111111111086 424.01389016045465 -42.3611111111112 369.03472349378796 210.41666666666674 365.87500127156574C463.19444444444446 362.7152790493435 336.80555555555554 449.9236123826769 589.5833333333334 443.6041679382324C842.3611111111113 437.28472349378796 842.3611111111113 379.1458346048991 968.75 346.9166679382324 " transform="rotate(43.75, 400, 400)"></path><path d="M-152.5 451.56666768391926C-29.72222222222217 423.3277787950304 -29.722222222222285 369.919445461697 215.83333333333326 366.8500010172526C461.3888888888889 363.78055657280817 338.6111111111111 448.4972232394748 584.1666666666666 442.35833435058595C829.7222222222222 436.2194454616971 829.7222222222222 379.7416676839193 952.5 348.43333435058594 " transform="rotate(42.5, 400, 400)"></path><path d="M-136.25 450.0500007629395C-17.083333333333314 422.6416674296061 -17.08333333333337 370.80416742960614 221.25 367.82500076293945C459.5833333333335 364.84583409627277 340.4166666666665 447.0708340962728 578.75 441.1125007629395C817.0833333333335 435.1541674296061 817.0833333333335 380.33750076293944 936.25 349.95000076293945 " transform="rotate(41.25, 400, 400)"></path><path d="M-120 448.53333384195963C-4.4444444444444 421.95555606418185 -4.444444444444514 371.6888893975152 226.66666666666674 368.8000005086263C457.7777777777778 365.9111116197374 342.2222222222222 445.6444449530708 573.3333333333334 439.86666717529295C804.4444444444446 434.08888939751523 804.4444444444446 380.93333384195967 920 351.46666717529297 " transform="rotate(40, 400, 400)"></path><path d="M-103.75 447.0166669209798C8.194444444444457 421.2694446987576 8.1944444444444 372.57361136542426 232.08333333333326 369.77500025431317C455.9722222222223 366.976389143202 344.0277777777777 444.2180558098687 567.9166666666666 438.6208335876465C791.8055555555557 433.02361136542424 791.8055555555557 381.52916692097983 903.75 352.9833335876465 " transform="rotate(38.75, 400, 400)"></path><path d="M-87.5 445.5C20.83333333333337 420.5833333333333 20.833333333333258 373.4583333333333 237.5 370.75C454.16666666666674 368.0416666666667 345.83333333333326 442.7916666666667 562.5 437.375C779.1666666666667 431.95833333333337 779.1666666666667 382.125 887.5 354.5 " transform="rotate(37.5, 400, 400)"></path><path d="M-71.25 443.9833330790202C33.472222222222285 419.89722196790905 33.47222222222217 374.34305530124243 242.91666666666674 371.72499974568683C452.3611111111112 369.1069441901313 347.6388888888888 441.36527752346467 557.0833333333334 436.1291664123535C766.5277777777778 430.8930553012424 766.5277777777778 382.72083307902017 871.25 356.0166664123535 " transform="rotate(36.25, 400, 400)"></path><path d="M-55 442.46666615804037C46.11111111111114 419.2111106024848 46.111111111111086 375.2277772691515 248.33333333333331 372.6999994913737C450.55555555555566 370.17222171359595 349.44444444444434 439.9388883802626 551.6666666666666 434.88333282470705C753.8888888888889 429.8277772691515 753.8888888888889 383.3166661580404 855 357.53333282470703 " transform="rotate(35, 400, 400)"></path><path d="M-38.75 440.9499992370605C58.75 418.52499923706057 58.74999999999994 376.11249923706055 253.75 373.67499923706055C448.7500000000001 371.23749923706055 351.25 438.5124992370605 546.25 433.6374992370605C741.2500000000001 428.7624992370605 741.2500000000001 383.91249923706056 838.75 359.04999923706055 " transform="rotate(33.75, 400, 400)"></path><path d="M-22.5 439.43332850138347C71.38888888888891 417.83888405693904 71.3888888888888 376.99721739027234 259.1666666666667 374.6499951680501C446.94444444444446 372.3027729458279 353.05555555555554 437.08610627916124 540.8333333333334 432.3916618347168C728.6111111111112 427.6972173902724 728.6111111111112 384.50832850138346 822.5 360.5666618347168 " transform="rotate(32.5, 400, 400)"></path><path d="M-6.25 437.91666539510095C84.02777777777783 417.15277650621204 84.02777777777771 377.88194317287866 264.5833333333333 375.62499872843426C445.1388888888889 373.3680542839898 354.8611111111111 435.6597209506565 535.4166666666666 431.1458320617676C715.9722222222223 426.6319431728787 715.9722222222223 385.1041653951009 806.25 362.0833320617676 " transform="rotate(31.25, 400, 400)"></path><path d="M10 436.39999465942384C96.66666666666669 416.4666613260905 96.66666666666663 378.7666613260905 270 376.5999946594238C443.33333333333337 374.43332799275714 356.66666666666663 434.23332799275715 530 429.89999465942384C703.3333333333335 425.5666613260905 703.3333333333335 385.69999465942385 790 363.5999946594238 " transform="rotate(30, 400, 400)"></path><path d="M26.25 434.88333155314126C109.3055555555556 415.7805537753635 109.30555555555554 379.65138710869684 275.41666666666663 377.5749982198079C441.5277777777778 375.49860933091907 358.4722222222222 432.8069426642524 524.5833333333333 428.65416488647463C690.6944444444445 424.50138710869686 690.6944444444445 386.2958315531413 773.75 365.1166648864746 " transform="rotate(28.75, 400, 400)"></path><path d="M42.5 433.3666608174642C121.94444444444446 415.09443859524197 121.9444444444444 380.53610526190863 280.83333333333337 378.54999415079754C439.7222222222223 376.5638830396864 360.2777777777777 431.38054970635307 519.1666666666667 427.40832748413084C678.0555555555557 423.43610526190866 678.0555555555557 386.8916608174642 757.5 366.63332748413086 " transform="rotate(27.5, 400, 400)"></path><path d="M58.75 431.84999961853026C134.58333333333337 414.4083329518636 134.58333333333326 381.4208329518636 286.25 379.5249996185303C437.91666666666674 377.62916628519696 362.08333333333326 429.95416628519695 513.75 426.16249961853026C665.4166666666666 422.37083295186363 665.4166666666666 387.48749961853025 741.25 368.1499996185303 " transform="rotate(26.25, 400, 400)"></path><path d="M75 430.3333326975505C147.22222222222223 413.72222158643933 147.22222222222217 382.3055549197727 291.66666666666663 380.4999993642171C436.1111111111111 378.69444380866156 363.88888888888886 428.52777714199493 508.33333333333326 424.9166660308838C652.7777777777778 421.3055549197727 652.7777777777778 388.0833326975505 725 369.6666660308838 " transform="rotate(25, 400, 400)"></path><path d="M91.25 428.81666577657063C159.86111111111114 413.03611022101506 159.8611111111111 383.19027688768176 297.08333333333337 381.474999109904C434.30555555555566 379.7597213321262 365.6944444444444 427.10138799879286 502.91666666666674 423.6708324432373C640.1388888888889 420.2402768876818 640.1388888888889 388.67916577657064 708.75 371.1833324432373 " transform="rotate(23.75, 400, 400)"></path><path d="M107.5 427.3000007629395C172.5 412.35000076293943 172.49999999999994 384.07500076293945 302.5 382.45000076293945C432.5 380.82500076293945 367.49999999999994 425.6750007629395 497.5 422.4250007629395C627.5 419.1750007629395 627.5 389.27500076293944 692.5 372.70000076293945 " transform="rotate(22.5, 400, 400)"></path><path d="M123.75 425.783331934611C185.1388888888889 411.66388749016653 185.13888888888886 384.9597208234999 307.91666666666663 383.42499860127765C430.69444444444446 381.8902763790554 369.30555555555554 424.24860971238877 492.08333333333326 421.1791652679443C614.8611111111111 418.1097208234999 614.8611111111111 389.87083193461103 676.25 374.21666526794434 " transform="rotate(21.25, 400, 400)"></path><path d="M140 424.26666692097984C197.77777777777783 410.97777803209095 197.77777777777777 385.84444469875757 313.33333333333337 384.40000025431317C428.8888888888889 382.9555558098687 371.1111111111111 422.8222224765354 486.66666666666674 419.9333335876465C602.2222222222223 417.0444446987576 602.2222222222223 390.46666692097983 660 375.7333335876465 " transform="rotate(20, 400, 400)"></path><path d="M156.25 422.75C210.41666666666669 410.2916666666667 210.41666666666663 386.7291666666667 318.75 385.375C427.08333333333337 384.0208333333333 372.91666666666663 421.3958333333333 481.25 418.6875C589.5833333333334 415.9791666666667 589.5833333333334 391.0625 643.75 377.25 " transform="rotate(18.75, 400, 400)"></path><path d="M172.5 421.23333307902016C223.05555555555557 409.6055553012424 223.05555555555554 387.61388863457574 324.16666666666663 386.34999974568683C425.2777777777778 385.086110856798 374.7222222222222 419.9694441901313 475.8333333333333 417.4416664123535C576.9444444444445 414.91388863457576 576.9444444444445 391.65833307902017 627.5 378.7666664123535 " transform="rotate(17.5, 400, 400)"></path><path d="M188.75 419.71666425069174C235.69444444444446 408.9194420284695 235.6944444444444 388.49860869513617 329.58333333333337 387.3249975840251C423.47222222222223 386.15138647291394 376.52777777777777 418.54305313958065 470.4166666666667 416.1958309173584C564.3055555555557 413.8486086951362 564.3055555555557 392.25416425069176 611.25 380.2833309173584 " transform="rotate(16.25, 400, 400)"></path><path d="M205 418.1999973297119C248.33333333333334 408.23333066304525 248.33333333333331 389.38333066304523 335 388.2999973297119C421.6666666666667 387.2166639963786 378.3333333333333 417.1166639963786 465 414.9499973297119C551.6666666666667 412.78333066304526 551.6666666666667 392.8499973297119 595 381.7999973297119 " transform="rotate(15, 400, 400)"></path><path d="M221.25 416.6833304087321C260.97222222222223 407.547219297621 260.9722222222222 390.26805263095434 340.4166666666667 389.27499707539874C419.86111111111114 388.2819415198432 380.13888888888886 415.69027485317656 459.58333333333337 413.7041637420654C539.0277777777778 411.71805263095433 539.0277777777778 393.4458304087321 578.75 383.31666374206543 " transform="rotate(13.75, 400, 400)"></path><path d="M237.5 415.1666663487752C273.6111111111111 406.86111079321967 273.6111111111111 391.15277745988635 345.8333333333333 390.2499996821086C418.05555555555554 389.3472219043308 381.94444444444446 414.26388857099744 454.16666666666663 412.4583330154419C526.3888888888889 410.65277745988635 526.3888888888889 394.0416663487752 562.5 384.8333330154419 " transform="rotate(12.5, 400, 400)"></path><path d="M253.75 413.6499994277954C286.25 406.1749994277954 286.25 392.0374994277954 351.25 391.2249994277954C416.25 390.4124994277954 383.75 412.8374994277954 448.75 411.2124994277954C513.75 409.5874994277954 513.75 394.63749942779543 546.25 386.3499994277954 " transform="rotate(11.25, 400, 400)"></path><path d="M270 412.1333334604899C298.8888888888889 405.48888901604545 298.8888888888889 392.9222223493788 356.6666666666667 392.20000012715656C414.44444444444446 391.4777779049343 385.55555555555554 411.41111123826767 443.33333333333337 409.96666679382326C501.11111111111114 408.5222223493788 501.11111111111114 395.2333334604899 530 387.86666679382324 " transform="rotate(10, 400, 400)"></path><path d="M286.25 410.6166655858358C311.52777777777777 404.80277669694686 311.52777777777777 393.8069433636135 362.0833333333333 393.1749989191691C412.6388888888889 392.54305447472467 387.3611111111111 409.98472114139133 437.91666666666663 408.7208322525024C488.47222222222223 407.45694336361356 488.47222222222223 395.82916558583577 513.75 389.38333225250244 " transform="rotate(8.75, 400, 400)"></path><path d="M302.5 409.09999866485595C324.1666666666667 404.1166653315226 324.16666666666663 394.69166533152264 367.5 394.14999866485596C410.83333333333337 393.60833199818927 389.16666666666663 408.5583319981893 432.5 407.47499866485595C475.83333333333337 406.39166533152263 475.83333333333337 396.42499866485593 497.5 390.89999866485596 " transform="rotate(7.5, 400, 400)"></path><path d="M318.75 407.58333317438763C336.80555555555554 403.43055539660986 336.80555555555554 395.5763887299432 372.91666666666663 395.12499984105426C409.02777777777777 394.6736109521654 390.97222222222223 407.1319442854987 427.0833333333333 406.22916650772095C463.19444444444446 405.3263887299432 463.19444444444446 397.02083317438763 481.25 392.41666650772095 " transform="rotate(6.25, 400, 400)"></path><path d="M335 406.06666673024495C349.44444444444446 402.74444450802275 349.44444444444446 396.4611111746894 378.33333333333337 396.1000000635783C407.22222222222223 395.73888895246716 392.77777777777777 405.70555561913386 421.6666666666667 404.98333339691163C450.55555555555554 404.2611111746894 450.55555555555554 397.61666673024496 465 393.9333333969116 " transform="rotate(5, 400, 400)"></path><path d="M351.25 404.54999980926516C362.08333333333337 402.0583331425985 362.0833333333333 397.34583314259845 383.75 397.07499980926514C405.4166666666667 396.8041664759318 394.5833333333333 404.2791664759318 416.25 403.73749980926516C437.9166666666667 403.1958331425985 437.9166666666667 398.2124998092651 448.75 395.44999980926514 " transform="rotate(3.75, 400, 400)"></path><path d="M367.5 403.0333333651225C374.72222222222223 401.3722222540114 374.72222222222223 398.2305555873447 389.16666666666663 398.0500000317891C403.6111111111111 397.8694444762336 396.3888888888889 402.85277780956693 410.83333333333337 402.4916666984558C425.27777777777777 402.1305555873447 425.27777777777777 398.8083333651225 432.5 396.9666666984558 " transform="rotate(2.5, 400, 400)"></path><path d="M383.75 401.51666692097984C387.3611111111111 400.68611136542427 387.3611111111111 399.11527803209094 394.58333333333337 399.02500025431317C401.80555555555554 398.9347224765354 398.19444444444446 401.426389143202 405.41666666666663 401.2458335876465C412.6388888888889 401.06527803209093 412.6388888888889 399.40416692097983 416.25 398.4833335876465 " transform="rotate(1.25, 400, 400)"></path></g></svg>